<?xml version="1.0" encoding="UTF-8"?>
<!DOCTYPE svg PUBLIC "-//W3C//DTD SVG 1.1//EN" "http://www.w3.org/Graphics/SVG/1.1/DTD/svg11.dtd">
<!-- Creator: CorelDRAW 2020 (64-Bit) -->
<svg xmlns="http://www.w3.org/2000/svg" xml:space="preserve" width="43px" height="43px" version="1.1" style="shape-rendering:geometricPrecision; text-rendering:geometricPrecision; image-rendering:optimizeQuality; fill-rule:evenodd; clip-rule:evenodd"
viewBox="0 0 6.53 6.53"
 xmlns:xlink="http://www.w3.org/1999/xlink"
 xmlns:xodm="http://www.corel.com/coreldraw/odm/2003">
 <defs>
  <style type="text/css">
   <![CDATA[
    .fil0 {fill:white}
    .fil1 {fill:#6E6E6E;fill-rule:nonzero}
   ]]>
  </style>
 </defs>
 <g id="Layer_x0020_1">
  <metadata id="CorelCorpID_0Corel-Layer"/>
  <g id="_1237388720">
   <rect class="fil0" width="6.53" height="6.53" rx="0.58" ry="3.27"/>
   <g>
    <path class="fil1" d="M2.06 3.9l0.99 -0.58 -1 -0.6 0 1.14c0,0.02 0.01,0.03 0.01,0.04z"/>
    <path class="fil1" d="M3.13 3.37l-1.05 0.62c0.03,0.05 0.08,0.08 0.14,0.08l2.09 0c0.07,0 0.13,-0.04 0.15,-0.1l-1.04 -0.61 -0.14 0.09 -0.15 -0.08z"/>
    <path class="fil1" d="M4.48 3.86l0 -1.13 -0.98 0.59 0.98 0.56c0,0 0,-0.01 0,-0.02z"/>
    <path class="fil1" d="M2.22 2.46c-0.09,0 -0.17,0.08 -0.17,0.17l0 0 1.23 0.73 1.2 -0.71 0 -0.02c0,-0.09 -0.08,-0.17 -0.17,-0.17l-2.09 0z"/>
   </g>
  </g>
 </g>
</svg>
