<?xml version="1.0" encoding="UTF-8"?>
<!DOCTYPE svg PUBLIC "-//W3C//DTD SVG 1.1//EN" "http://www.w3.org/Graphics/SVG/1.1/DTD/svg11.dtd">
<!-- Creator: CorelDRAW 2020 (64-Bit) -->
<svg xmlns="http://www.w3.org/2000/svg" xml:space="preserve" width="189px" height="75px" version="1.1" style="shape-rendering:geometricPrecision; text-rendering:geometricPrecision; image-rendering:optimizeQuality; fill-rule:evenodd; clip-rule:evenodd"
viewBox="0 0 189 75.17"
 xmlns:xlink="http://www.w3.org/1999/xlink"
 xmlns:xodm="http://www.corel.com/coreldraw/odm/2003">
 <defs>
  <style type="text/css">
   <![CDATA[
    .fil0 {fill:white}
    .fil1 {fill:white;fill-rule:nonzero}
   ]]>
  </style>
      <mask id="id0">
  <linearGradient id="id1" gradientUnits="userSpaceOnUse" x1="106.65" y1="17.89" x2="162.03" y2="30.12">
   <stop offset="0" style="stop-opacity:1; stop-color:white"/>
   <stop offset="1" style="stop-opacity:0; stop-color:white"/>
  </linearGradient>
       <rect style="fill:url(#id1)" x="106.72" y="29.39" width="59.16" height="26.22"/>
      </mask>
      <mask id="id2">
  <linearGradient id="id3" gradientUnits="userSpaceOnUse" x1="112.97" y1="38.53" x2="155.32" y2="14.33">
   <stop offset="0" style="stop-opacity:1; stop-color:white"/>
   <stop offset="1" style="stop-opacity:0; stop-color:white"/>
  </linearGradient>
       <rect style="fill:url(#id3)" x="116.37" y="7.57" width="48.64" height="45.62"/>
      </mask>
      <mask id="id4">
  <linearGradient id="id5" gradientUnits="userSpaceOnUse" x1="135.65" y1="49.31" x2="136.93" y2="3.54">
   <stop offset="0" style="stop-opacity:1; stop-color:white"/>
   <stop offset="1" style="stop-opacity:0; stop-color:white"/>
  </linearGradient>
       <rect style="fill:url(#id5)" x="133.83" y="-1.18" width="28.69" height="51.68"/>
      </mask>
      <mask id="id6">
  <linearGradient id="id7" gradientUnits="userSpaceOnUse" x1="148.59" y1="43.33" x2="127.22" y2="8.52">
   <stop offset="0" style="stop-opacity:1; stop-color:white"/>
   <stop offset="1" style="stop-opacity:0; stop-color:white"/>
  </linearGradient>
       <rect style="fill:url(#id7)" x="124.78" y="2.15" width="35.22" height="42.49"/>
      </mask>
      <mask id="id8">
  <linearGradient id="id9" gradientUnits="userSpaceOnUse" x1="154.63" y1="32.99" x2="119.37" y2="17.19">
   <stop offset="0" style="stop-opacity:1; stop-color:white"/>
   <stop offset="1" style="stop-opacity:0; stop-color:white"/>
  </linearGradient>
       <rect style="fill:url(#id9)" x="117.43" y="3.75" width="40.11" height="30.87"/>
      </mask>
 </defs>
 <g id="Layer_x0020_1">
  <metadata id="CorelCorpID_0Corel-Layer"/>
  <g id="_1235147520">
   <g>
    <rect class="fil0" x="37.34" y="15.68" width="5.79" height="25.74" rx="2.9" ry="3.26"/>
    <path class="fil0" d="M96.82 22.26l0 16.27c0,1.59 -1.31,2.89 -2.9,2.89l0 0c-1.59,0 -2.9,-1.3 -2.9,-2.89l0 -16.27 5.8 0z"/>
    <rect class="fil0" transform="matrix(2.27767E-14 -0.951416 0.966605 2.83214E-14 82.2848 21.4735)" width="6.09" height="24.07" rx="3.04" ry="3.04"/>
    <path class="fil0" d="M63.03 35.63l9.61 0c1.6,0 2.9,1.3 2.9,2.9l0 0c0,1.59 -1.3,2.89 -2.9,2.89l-14.61 0 5 -5.79z"/>
    <path class="fil0" d="M53.26 18.58l0 0c0,-1.6 1.3,-2.9 2.9,-2.9l14.57 0 -5 5.79 -9.57 0c-1.6,0 -2.9,-1.3 -2.9,-2.89z"/>
    <rect class="fil0" transform="matrix(-0.592638 -0.686021 -0.861919 0.997732 76.5593 18.631)" width="6.09" height="24.07" rx="3.04" ry="3.04"/>
    <path class="fil0" d="M1.58 16.65l0 0c1.51,-0.87 3.45,-0.35 4.32,1.16l7.49 12.98 -3.65 6.33 -9.32 -16.15c-0.87,-1.5 -0.35,-3.45 1.16,-4.32z"/>
    <rect class="fil0" transform="matrix(-0.899888 -0.519554 -0.583955 1.01145 29.2677 18.2344)" width="6.09" height="24.07" rx="3.04" ry="3.04"/>
    <g>
     <path class="fil0" style="mask:url(#id0)" d="M164.7 30.74c-3.58,16.21 -18.99,26.56 -35.2,22.98 -9.54,-2.11 -17.66,-8.54 -21.49,-16.77l-0.03 -0.07 0 -0.01c-0.07,-0.17 -0.1,-0.36 -0.06,-0.55 0.09,-0.52 0.59,-0.87 1.12,-0.77 0.33,0.06 0.59,0.28 0.71,0.57l0.01 0c3.59,8.01 10.79,14.27 20.02,16.31 15.5,3.44 30.86,-6.35 34.29,-21.86l0.63 0.17z"/>
     <path class="fil0" style="mask:url(#id2)" d="M159.77 8.75c8.36,13.12 2.87,31.53 -8.09,38.56 -10.78,6.91 -24.1,6.33 -33.85,-2.55l-0.01 -0.01 -0.01 -0.02 -0.01 0 0 0c-0.19,-0.18 -0.28,-0.44 -0.23,-0.72 0.08,-0.43 0.49,-0.71 0.92,-0.63 0.15,0.02 0.29,0.1 0.4,0.2l0 0c8.77,7.8 20.69,9.99 32.13,2.69 11.48,-7.32 14.92,-25.12 8.23,-37.19l0.52 -0.33z"/>
     <path class="fil0" style="mask:url(#id4)" d="M137.27 0c13.73,0.45 24.51,11.4 24.06,25.13 -0.45,13.71 -11.94,24.59 -25.64,24.17l-0.02 0 -0.01 0 -0.03 0 0 0 -0.07 -0.01c-0.37,-0.06 -0.61,-0.41 -0.54,-0.77 0.06,-0.35 0.38,-0.58 0.72,-0.54 13.11,0.41 24.07,-9.76 24.5,-22.88 0.43,-13.13 -9.86,-24.13 -22.99,-24.56l0.02 -0.54z"/>
     <path class="fil0" style="mask:url(#id6)" d="M125.96 6.66c10.23,-6.28 23.36,-3.48 29.63,6.75 6.26,10.21 3.14,23.65 -7.04,29.94l-0.02 0.01 -0.01 0 -0.01 0.01 -0.01 0.01c-0.13,0.07 -0.28,0.1 -0.43,0.07 -0.35,-0.06 -0.59,-0.4 -0.52,-0.75 0.03,-0.17 0.13,-0.31 0.26,-0.41l0 0 0.02 -0.01 0.01 -0.01 0.01 -0.01c9.75,-6 12.92,-18.59 6.93,-28.35 -6,-9.78 -18.79,-12.85 -28.57,-6.85l-0.25 -0.4z"/>
     <path class="fil0" style="mask:url(#id8)" d="M118.61 16.85c4.54,-10.07 15.99,-14.72 26.05,-10.17 10.06,4.54 14.45,16.35 9.91,26.41l0 0c-0.12,0.24 -0.39,0.39 -0.67,0.33 -0.35,-0.06 -0.57,-0.38 -0.51,-0.73 0.01,-0.04 0.02,-0.08 0.04,-0.12l0 0c4.34,-9.63 0.49,-20.75 -9.13,-25.1 -9.62,-4.34 -20.95,-0.07 -25.29,9.56l-0.4 -0.18z"/>
    </g>
    <path class="fil0" d="M179.31 15.68c3.4,0 6.49,1.32 8.79,3.47l0 0c0.55,0.54 0.9,1.28 0.9,2.11 0,1.61 -1.31,2.91 -2.91,2.91 -0.85,0 -1.61,-0.35 -2.14,-0.93 -1.24,-1.08 -2.86,-1.74 -4.64,-1.74 -3.89,0 -7.05,3.16 -7.05,7.05 0,3.9 3.16,7.05 7.05,7.05 1.79,0 3.43,-0.66 4.67,-1.76l0 -0.01c0.53,-0.55 1.28,-0.9 2.11,-0.9 1.61,0 2.91,1.31 2.91,2.92 0,0.83 -0.35,1.57 -0.9,2.1l0 0 0 0c-2.3,2.16 -5.39,3.47 -8.79,3.47 -7.11,0 -12.87,-5.76 -12.87,-12.87 0,-7.11 5.76,-12.87 12.87,-12.87z"/>
   </g>
   <path class="fil1" d="M81.92 62.31l-5.87 0 0 12.86 3.63 0 0 -3.37 2.24 0c3.51,0 5.71,-1.81 5.71,-4.73 0,-2.94 -2.2,-4.76 -5.71,-4.76zm-0.22 6.63l-2.02 0 0 -3.76 2.02 0c1.51,0 2.26,0.69 2.26,1.89 0,1.17 -0.75,1.87 -2.26,1.87z"/>
   <polygon id="1" class="fil1" points="105.54,75.17 105.5,62.31 102.51,62.31 98.1,69.73 93.59,62.31 90.59,62.31 90.59,75.17 93.95,75.17 93.95,68.54 97.24,73.9 98.85,73.9 102.16,68.35 102.2,75.17 "/>
   <polygon id="2" class="fil1" points="109.3,75.17 112.94,75.17 112.94,62.31 109.3,62.31 "/>
  </g>
 </g>
</svg>
