<?xml version="1.0" encoding="UTF-8"?>
<!DOCTYPE svg PUBLIC "-//W3C//DTD SVG 1.1//EN" "http://www.w3.org/Graphics/SVG/1.1/DTD/svg11.dtd">
<!-- Creator: CorelDRAW 2020 (64-Bit) -->
<svg xmlns="http://www.w3.org/2000/svg" xml:space="preserve" width="43px" height="43px" version="1.1" style="shape-rendering:geometricPrecision; text-rendering:geometricPrecision; image-rendering:optimizeQuality; fill-rule:evenodd; clip-rule:evenodd"
viewBox="0 0 6.53 6.53"
 xmlns:xlink="http://www.w3.org/1999/xlink"
 xmlns:xodm="http://www.corel.com/coreldraw/odm/2003">
 <defs>
  <style type="text/css">
   <![CDATA[
    .fil0 {fill:white}
    .fil1 {fill:#6E6E6E;fill-rule:nonzero}
   ]]>
  </style>
 </defs>
 <g id="Layer_x0020_1">
  <metadata id="CorelCorpID_0Corel-Layer"/>
  <g id="_1237927408">
   <rect class="fil0" width="6.53" height="6.53" rx="0.58" ry="3.27"/>
   <path class="fil1" d="M3.63 3.05l-0.72 0 0 -0.24c0,-0.2 0.16,-0.36 0.36,-0.36 0.19,0 0.36,0.16 0.36,0.36l0 0.24zm-0.28 0.67l0 0.12c0,0.02 -0.02,0.03 -0.03,0.03l-0.1 0c-0.02,0 -0.03,-0.01 -0.03,-0.03l0 -0.12c-0.05,-0.03 -0.08,-0.08 -0.08,-0.13 0,-0.09 0.07,-0.16 0.16,-0.16 0.08,0 0.15,0.07 0.15,0.16 0,0.05 -0.03,0.1 -0.07,0.13zm0.61 -0.67l-0.05 0 0 -0.24c0,-0.36 -0.29,-0.64 -0.64,-0.64 -0.36,0 -0.64,0.28 -0.64,0.64l0 0.24 -0.05 0c-0.11,0 -0.2,0.08 -0.2,0.19l0 0.93c0,0.11 0.09,0.2 0.2,0.2l1.38 0c0.11,0 0.19,-0.09 0.19,-0.2l0 -0.93c0,-0.11 -0.08,-0.19 -0.19,-0.19z"/>
  </g>
 </g>
</svg>
